<svg width="50" height="50" xmlns="http://www.w3.org/2000/svg" viewBox="0 0 84.47721 80.046">
  <g id="logo">
    <path d="M41.65625,46.30938a4.39315,4.39315,0,0,0-1.843,1.7738l-.73722,1.26718-.069.16128L24.76982,74.1388a5.74821,5.74821,0,0,1-4.97619,2.8797H12.49076a5.68313,5.68313,0,0,1-5.06829-3.041H13.0667a5.75736,5.75736,0,0,0,4.99911-2.87969L32.28009,46.4476l.0921-.13822.73722-1.267a4.50007,4.50007,0,0,1,7.80977,0Z" fill="#0c8ac0" fill-rule="evenodd"/>
    <path d="M74.96862,77.0185H67.66575a5.81345,5.81345,0,0,1-4.99911-2.8797l-.09224-.16128h5.69035a5.77773,5.77773,0,0,0,4.99912-8.66214L62.36714,46.4476l-.09224-.13822L41.24159,9.91006,43.72969,5.625,68.97891,49.35036l.0921.16128L79.96774,68.35635A5.77773,5.77773,0,0,1,74.96862,77.0185Z" fill="#0c8ac0" fill-rule="evenodd"/>
  </g>
</svg>
