<svg width="38" height="38" xmlns="http://www.w3.org/2000/svg" viewBox="0 0 84.47721 80.046">
  <g id="logo">
    <g>
      <path d="M41.65625,46.30938a4.39315,4.39315,0,0,0-1.843,1.7738l-.73722,1.26718-.069.16128L24.76982,74.1388a5.74821,5.74821,0,0,1-4.97619,2.8797H12.49076a5.68313,5.68313,0,0,1-5.06829-3.041H13.0667a5.75736,5.75736,0,0,0,4.99911-2.87969L32.28009,46.4476l.0921-.13822.73722-1.267a4.50007,4.50007,0,0,1,7.80977,0Z" fill="none" stroke="#00b0d7" stroke-miterlimit="10" stroke-width="2.02943" fill-rule="evenodd"/>
      <path d="M74.96862,77.0185H67.66575a5.81345,5.81345,0,0,1-4.99911-2.8797l-.09224-.16128h5.69035a5.77773,5.77773,0,0,0,4.99912-8.66214L62.36714,46.4476l-.09224-.13822L41.24159,9.91006,43.72969,5.625,68.97891,49.35036l.0921.16128L79.96774,68.35635A5.77773,5.77773,0,0,1,74.96862,77.0185Z" fill="none" stroke="#00b0d7" stroke-miterlimit="10" stroke-width="2.02943" fill-rule="evenodd"/>
      <path d="M68.26475,73.97752h-7.303a5.81381,5.81381,0,0,1-4.99911-2.87969L41.74849,46.4476l-.09224-.13822-.73707-1.267a4.50007,4.50007,0,0,0-7.80977,0l-.73722,1.267-.0921.13822L18.06581,71.09783a5.75736,5.75736,0,0,1-4.99911,2.87969H5.78689A5.77029,5.77029,0,0,1,.78764,65.31538L11.6845,46.4476l.069-.13822L37.00276,2.56107l4.23883,7.349L62.2749,46.30938l.09224.13822L73.26387,65.31538A5.77773,5.77773,0,0,1,68.26475,73.97752Z" fill="#fff" fill-rule="evenodd"/>
    </g>
  </g>
</svg>
