<svg width="80" height="80" xmlns="http://www.w3.org/2000/svg" viewBox="0 0 201.02689 202.84738">
  <g id="logo">
    <g>
      <path d="M48.07693,31.37408H152.95a17.6131,17.6131,0,0,1,17.6131,17.6131V171.47331a0,0,0,0,1,0,0H47.07607a16.61224,16.61224,0,0,1-16.61224-16.61224V48.98718a17.6131,17.6131,0,0,1,17.6131-17.6131Z" fill="#231f20"/>
      <path d="M105.08151,109.3472a4.32944,4.32944,0,0,0-1.81625,1.74808l-.72653,1.2488-.068.15894L88.43993,136.7731a5.66487,5.66487,0,0,1-4.904,2.83794h-7.197a5.60076,5.60076,0,0,1-4.9948-2.99688H76.9065a5.67389,5.67389,0,0,0,4.92663-2.83794l14.00817-24.2928.09077-.13622.72652-1.24867a4.43483,4.43483,0,0,1,7.69653,0Z" fill="none" stroke="#00b2d9" stroke-miterlimit="10" stroke-width="2" fill-rule="evenodd"/>
      <path d="M137.91086,139.611h-7.197a5.72915,5.72915,0,0,1-4.92662-2.83794l-.09091-.15894h5.60785a5.694,5.694,0,0,0,4.92662-8.53655L125.4921,109.48342l-.0909-.13622L104.67287,73.47566l2.452-4.223L132.008,112.34408l.09076.15894,10.73873,18.57147A5.694,5.694,0,0,1,137.91086,139.611Z" fill="none" stroke="#00b2d9" stroke-miterlimit="10" stroke-width="2" fill-rule="evenodd"/>
      <path d="M131.3042,136.61416h-7.19712a5.72952,5.72952,0,0,1-4.92663-2.83794l-14.008-24.2928-.09091-.13622-.72639-1.24867a4.43483,4.43483,0,0,0-7.69653,0l-.72652,1.24867-.09077.13622-14.00817,24.2928a5.67389,5.67389,0,0,1-4.92663,2.83794H69.73225a5.68664,5.68664,0,0,1-4.92677-8.53655l10.73886-18.59419.068-.13622,24.88312-43.114,4.17737,7.24243L125.4012,109.3472l.0909.13622,10.73872,18.59419A5.694,5.694,0,0,1,131.3042,136.61416Z" fill="#fff" fill-rule="evenodd"/>
    </g>
  </g>
</svg>
