<svg width="50" height="50" xmlns="http://www.w3.org/2000/svg" viewBox="0 0 140.09923 140.09923">
  <g id="Layer_2" data-name="Layer 2">
    <g id="logo">
      <g>
        <path d="M17.6131,0h104.873a17.6131,17.6131,0,0,1,17.6131,17.6131V140.09923a0,0,0,0,1,0,0H16.61224A16.61224,16.61224,0,0,1,0,123.487V17.6131A17.6131,17.6131,0,0,1,17.6131,0Z" fill="#231f20"/>
        <path d="M74.61768,77.97312a4.32944,4.32944,0,0,0-1.81625,1.74808L72.0749,80.97l-.068.15894L57.9761,105.399a5.66485,5.66485,0,0,1-4.904,2.83794h-7.197a5.60076,5.60076,0,0,1-4.9948-2.99688h5.56239a5.67389,5.67389,0,0,0,4.92663-2.83794l14.00817-24.2928.09076-.13622.72653-1.24866a4.43482,4.43482,0,0,1,7.69653,0Z" fill="none" stroke="#00b2d9" stroke-miterlimit="10" stroke-width="2" fill-rule="evenodd"/>
        <path d="M107.447,108.237h-7.197a5.72912,5.72912,0,0,1-4.92662-2.83794l-.09091-.15894h5.60785a5.694,5.694,0,0,0,4.92662-8.53655L95.02827,78.10934l-.0909-.13622L74.209,42.10158l2.452-4.223L101.54417,80.97l.09076.15894,10.73873,18.57147A5.694,5.694,0,0,1,107.447,108.237Z" fill="none" stroke="#00b2d9" stroke-miterlimit="10" stroke-width="2" fill-rule="evenodd"/>
        <path d="M100.84037,105.24008H93.64325a5.72952,5.72952,0,0,1-4.92663-2.83794l-14.008-24.2928-.09091-.13622-.72639-1.24866a4.43482,4.43482,0,0,0-7.69653,0l-.72653,1.24866-.09076.13622L51.3693,102.40214a5.67389,5.67389,0,0,1-4.92663,2.83794H39.26842a5.68663,5.68663,0,0,1-4.92677-8.53655L45.08051,78.10934l.068-.13622,24.88312-43.114L74.209,42.10158,94.93737,77.97312l.0909.13622L105.767,96.70353A5.694,5.694,0,0,1,100.84037,105.24008Z" fill="#fff" fill-rule="evenodd"/>
      </g>
    </g>
  </g>
</svg>
